<svg width="1024" height="1366" viewBox="0 0 1024 1366" fill="none" xmlns="http://www.w3.org/2000/svg">
<g clip-path="url(#clip0)">
<rect width="1024" height="1366" fill="white"/>
<path d="M17.461 668.677C17.461 660.041 19.4083 652.294 23.303 645.436C27.1977 638.493 32.4893 633.075 39.178 629.18C45.9513 625.285 53.4443 623.338 61.657 623.338C71.309 623.338 79.7333 625.666 86.93 630.323C94.1267 634.98 99.376 641.584 102.678 650.135H88.835C86.3797 644.801 82.8237 640.695 78.167 637.816C73.595 634.937 68.0917 633.498 61.657 633.498C55.4763 633.498 49.9307 634.937 45.02 637.816C40.1093 640.695 36.257 644.801 33.463 650.135C30.669 655.384 29.272 661.565 29.272 668.677C29.272 675.704 30.669 681.885 33.463 687.219C36.257 692.468 40.1093 696.532 45.02 699.411C49.9307 702.29 55.4763 703.729 61.657 703.729C68.0917 703.729 73.595 702.332 78.167 699.538C82.8237 696.659 86.3797 692.553 88.835 687.219H102.678C99.376 695.686 94.1267 702.247 86.93 706.904C79.7333 711.476 71.309 713.762 61.657 713.762C53.4443 713.762 45.9513 711.857 39.178 708.047C32.4893 704.152 27.1977 698.776 23.303 691.918C19.4083 685.06 17.461 677.313 17.461 668.677ZM115.564 677.948C115.564 670.836 117.003 664.613 119.882 659.279C122.76 653.86 126.697 649.669 131.693 646.706C136.773 643.743 142.403 642.261 148.584 642.261C154.68 642.261 159.971 643.573 164.459 646.198C168.946 648.823 172.29 652.125 174.492 656.104V643.404H186.176V713H174.492V700.046C172.206 704.11 168.777 707.497 164.205 710.206C159.717 712.831 154.468 714.143 148.457 714.143C142.276 714.143 136.688 712.619 131.693 709.571C126.697 706.523 122.76 702.247 119.882 696.744C117.003 691.241 115.564 684.975 115.564 677.948ZM174.492 678.075C174.492 672.826 173.433 668.254 171.317 664.359C169.2 660.464 166.321 657.501 162.681 655.469C159.125 653.352 155.188 652.294 150.87 652.294C146.552 652.294 142.615 653.31 139.059 655.342C135.503 657.374 132.666 660.337 130.55 664.232C128.433 668.127 127.375 672.699 127.375 677.948C127.375 683.282 128.433 687.939 130.55 691.918C132.666 695.813 135.503 698.818 139.059 700.935C142.615 702.967 146.552 703.983 150.87 703.983C155.188 703.983 159.125 702.967 162.681 700.935C166.321 698.818 169.2 695.813 171.317 691.918C173.433 687.939 174.492 683.324 174.492 678.075ZM217.263 654.707C219.295 650.728 222.173 647.637 225.899 645.436C229.709 643.235 234.323 642.134 239.742 642.134V654.072H236.694C223.74 654.072 217.263 661.099 217.263 675.154V713H205.706V643.404H217.263V654.707ZM283.436 714.143C276.916 714.143 270.99 712.661 265.656 709.698C260.406 706.735 256.258 702.544 253.21 697.125C250.246 691.622 248.765 685.272 248.765 678.075C248.765 670.963 250.289 664.698 253.337 659.279C256.469 653.776 260.703 649.585 266.037 646.706C271.371 643.743 277.34 642.261 283.944 642.261C290.548 642.261 296.517 643.743 301.851 646.706C307.185 649.585 311.376 653.733 314.424 659.152C317.556 664.571 319.123 670.878 319.123 678.075C319.123 685.272 317.514 691.622 314.297 697.125C311.164 702.544 306.888 706.735 301.47 709.698C296.051 712.661 290.04 714.143 283.436 714.143ZM283.436 703.983C287.584 703.983 291.479 703.009 295.12 701.062C298.76 699.115 301.681 696.194 303.883 692.299C306.169 688.404 307.312 683.663 307.312 678.075C307.312 672.487 306.211 667.746 304.01 663.851C301.808 659.956 298.93 657.078 295.374 655.215C291.818 653.268 287.965 652.294 283.817 652.294C279.583 652.294 275.689 653.268 272.133 655.215C268.661 657.078 265.867 659.956 263.751 663.851C261.634 667.746 260.576 672.487 260.576 678.075C260.576 683.748 261.592 688.531 263.624 692.426C265.74 696.321 268.534 699.242 272.006 701.189C275.477 703.052 279.287 703.983 283.436 703.983ZM345.875 619.02V713H334.318V619.02H345.875ZM451.754 693.315H413.146L406.034 713H393.842L425.846 624.989H439.181L471.058 713H458.866L451.754 693.315ZM448.452 683.917L432.45 639.213L416.448 683.917H448.452ZM519.551 642.134C524.8 642.134 529.541 643.277 533.775 645.563C538.008 647.764 541.31 651.109 543.681 655.596C546.136 660.083 547.364 665.544 547.364 671.979V713H535.934V673.63C535.934 666.687 534.198 661.396 530.727 657.755C527.255 654.03 522.514 652.167 516.503 652.167C510.407 652.167 505.538 654.072 501.898 657.882C498.342 661.692 496.564 667.238 496.564 674.519V713H485.007V619.02H496.564V653.31C498.85 649.754 501.982 647.002 505.962 645.055C510.026 643.108 514.555 642.134 519.551 642.134ZM577.799 619.02V713H566.242V619.02H577.799ZM622.134 714.143C616.8 714.143 612.016 713.254 607.783 711.476C603.549 709.613 600.205 707.073 597.75 703.856C595.294 700.554 593.94 696.786 593.686 692.553H605.624C605.962 696.024 607.571 698.861 610.45 701.062C613.413 703.263 617.265 704.364 622.007 704.364C626.409 704.364 629.881 703.39 632.421 701.443C634.961 699.496 636.231 697.04 636.231 694.077C636.231 691.029 634.876 688.785 632.167 687.346C629.457 685.822 625.266 684.34 619.594 682.901C614.429 681.546 610.196 680.192 606.894 678.837C603.676 677.398 600.882 675.323 598.512 672.614C596.226 669.82 595.083 666.179 595.083 661.692C595.083 658.136 596.141 654.876 598.258 651.913C600.374 648.95 603.38 646.621 607.275 644.928C611.169 643.15 615.614 642.261 620.61 642.261C628.314 642.261 634.537 644.208 639.279 648.103C644.02 651.998 646.56 657.332 646.899 664.105H635.342C635.088 660.464 633.606 657.543 630.897 655.342C628.272 653.141 624.716 652.04 620.229 652.04C616.08 652.04 612.778 652.929 610.323 654.707C607.867 656.485 606.64 658.813 606.64 661.692C606.64 663.978 607.359 665.883 608.799 667.407C610.323 668.846 612.185 670.032 614.387 670.963C616.673 671.81 619.805 672.783 623.785 673.884C628.78 675.239 632.844 676.593 635.977 677.948C639.109 679.218 641.776 681.165 643.978 683.79C646.264 686.415 647.449 689.844 647.534 694.077C647.534 697.887 646.475 701.316 644.359 704.364C642.242 707.412 639.236 709.825 635.342 711.603C631.532 713.296 627.129 714.143 622.134 714.143ZM677.945 652.929V693.95C677.945 697.337 678.665 699.75 680.104 701.189C681.544 702.544 684.041 703.221 687.597 703.221H696.106V713H685.692C679.258 713 674.432 711.518 671.214 708.555C667.997 705.592 666.388 700.723 666.388 693.95V652.929H657.371V643.404H666.388V625.878H677.945V643.404H696.106V652.929H677.945ZM721.666 654.707C723.698 650.728 726.577 647.637 730.302 645.436C734.112 643.235 738.726 642.134 744.145 642.134V654.072H741.097C728.143 654.072 721.666 661.099 721.666 675.154V713H710.109V643.404H721.666V654.707ZM753.168 677.948C753.168 670.836 754.607 664.613 757.486 659.279C760.365 653.86 764.302 649.669 769.297 646.706C774.377 643.743 780.007 642.261 786.188 642.261C792.284 642.261 797.576 643.573 802.063 646.198C806.55 648.823 809.895 652.125 812.096 656.104V643.404H823.78V713H812.096V700.046C809.81 704.11 806.381 707.497 801.809 710.206C797.322 712.831 792.072 714.143 786.061 714.143C779.88 714.143 774.292 712.619 769.297 709.571C764.302 706.523 760.365 702.247 757.486 696.744C754.607 691.241 753.168 684.975 753.168 677.948ZM812.096 678.075C812.096 672.826 811.038 668.254 808.921 664.359C806.804 660.464 803.926 657.501 800.285 655.469C796.729 653.352 792.792 652.294 788.474 652.294C784.156 652.294 780.219 653.31 776.663 655.342C773.107 657.374 770.271 660.337 768.154 664.232C766.037 668.127 764.979 672.699 764.979 677.948C764.979 683.282 766.037 687.939 768.154 691.918C770.271 695.813 773.107 698.818 776.663 700.935C780.219 702.967 784.156 703.983 788.474 703.983C792.792 703.983 796.729 702.967 800.285 700.935C803.926 698.818 806.804 695.813 808.921 691.918C811.038 687.939 812.096 683.324 812.096 678.075ZM877.219 642.134C885.686 642.134 892.544 644.716 897.793 649.881C903.043 654.961 905.667 662.327 905.667 671.979V713H894.237V673.63C894.237 666.687 892.502 661.396 889.03 657.755C885.559 654.03 880.818 652.167 874.806 652.167C868.71 652.167 863.842 654.072 860.201 657.882C856.645 661.692 854.867 667.238 854.867 674.519V713H843.31V643.404H854.867V653.31C857.153 649.754 860.244 647.002 864.138 645.055C868.118 643.108 872.478 642.134 877.219 642.134ZM920.228 677.948C920.228 670.836 921.667 664.613 924.546 659.279C927.424 653.86 931.361 649.669 936.357 646.706C941.437 643.743 947.109 642.261 953.375 642.261C958.793 642.261 963.831 643.531 968.488 646.071C973.144 648.526 976.7 651.786 979.156 655.85V619.02H990.84V713H979.156V699.919C976.87 704.068 973.483 707.497 968.996 710.206C964.508 712.831 959.259 714.143 953.248 714.143C947.067 714.143 941.437 712.619 936.357 709.571C931.361 706.523 927.424 702.247 924.546 696.744C921.667 691.241 920.228 684.975 920.228 677.948ZM979.156 678.075C979.156 672.826 978.097 668.254 975.981 664.359C973.864 660.464 970.985 657.501 967.345 655.469C963.789 653.352 959.852 652.294 955.534 652.294C951.216 652.294 947.279 653.31 943.723 655.342C940.167 657.374 937.33 660.337 935.214 664.232C933.097 668.127 932.039 672.699 932.039 677.948C932.039 683.282 933.097 687.939 935.214 691.918C937.33 695.813 940.167 698.818 943.723 700.935C947.279 702.967 951.216 703.983 955.534 703.983C959.852 703.983 963.789 702.967 967.345 700.935C970.985 698.818 973.864 695.813 975.981 691.918C978.097 687.939 979.156 683.324 979.156 678.075Z" fill="black"/>
</g>
<defs>
<clipPath id="clip0">
<rect width="1024" height="1366" fill="white"/>
</clipPath>
</defs>
</svg>
