<svg width="111" height="111" viewBox="0 0 111 111" fill="none" xmlns="http://www.w3.org/2000/svg">
<rect width="111" height="111" fill="white"/>
<path d="M6.559 55.463C6.559 54.579 6.75833 53.786 7.157 53.084C7.55567 52.3733 8.09733 51.8187 8.782 51.42C9.47533 51.0213 10.2423 50.822 11.083 50.822C12.071 50.822 12.9333 51.0603 13.67 51.537C14.4067 52.0137 14.944 52.6897 15.282 53.565H13.865C13.6137 53.019 13.2497 52.5987 12.773 52.304C12.305 52.0093 11.7417 51.862 11.083 51.862C10.4503 51.862 9.88267 52.0093 9.38 52.304C8.87733 52.5987 8.483 53.019 8.197 53.565C7.911 54.1023 7.768 54.735 7.768 55.463C7.768 56.1823 7.911 56.815 8.197 57.361C8.483 57.8983 8.87733 58.3143 9.38 58.609C9.88267 58.9037 10.4503 59.051 11.083 59.051C11.7417 59.051 12.305 58.908 12.773 58.622C13.2497 58.3273 13.6137 57.907 13.865 57.361H15.282C14.944 58.2277 14.4067 58.8993 13.67 59.376C12.9333 59.844 12.071 60.078 11.083 60.078C10.2423 60.078 9.47533 59.883 8.782 59.493C8.09733 59.0943 7.55567 58.544 7.157 57.842C6.75833 57.14 6.559 56.347 6.559 55.463ZM16.601 56.412C16.601 55.684 16.7483 55.047 17.043 54.501C17.3377 53.9463 17.7407 53.5173 18.252 53.214C18.772 52.9107 19.3483 52.759 19.981 52.759C20.605 52.759 21.1467 52.8933 21.606 53.162C22.0653 53.4307 22.4077 53.7687 22.633 54.176V52.876H23.829V60H22.633V58.674C22.399 59.09 22.048 59.4367 21.58 59.714C21.1207 59.9827 20.5833 60.117 19.968 60.117C19.3353 60.117 18.7633 59.961 18.252 59.649C17.7407 59.337 17.3377 58.8993 17.043 58.336C16.7483 57.7727 16.601 57.1313 16.601 56.412ZM22.633 56.425C22.633 55.8877 22.5247 55.4197 22.308 55.021C22.0913 54.6223 21.7967 54.319 21.424 54.111C21.06 53.8943 20.657 53.786 20.215 53.786C19.773 53.786 19.37 53.89 19.006 54.098C18.642 54.306 18.3517 54.6093 18.135 55.008C17.9183 55.4067 17.81 55.8747 17.81 56.412C17.81 56.958 17.9183 57.4347 18.135 57.842C18.3517 58.2407 18.642 58.5483 19.006 58.765C19.37 58.973 19.773 59.077 20.215 59.077C20.657 59.077 21.06 58.973 21.424 58.765C21.7967 58.5483 22.0913 58.2407 22.308 57.842C22.5247 57.4347 22.633 56.9623 22.633 56.425ZM27.0111 54.033C27.2191 53.6257 27.5138 53.3093 27.8951 53.084C28.2851 52.8587 28.7575 52.746 29.3121 52.746V53.968H29.0001C27.6741 53.968 27.0111 54.6873 27.0111 56.126V60H25.8281V52.876H27.0111V54.033ZM33.7848 60.117C33.1174 60.117 32.5108 59.9653 31.9648 59.662C31.4274 59.3587 31.0028 58.9297 30.6908 58.375C30.3874 57.8117 30.2358 57.1617 30.2358 56.425C30.2358 55.697 30.3918 55.0557 30.7038 54.501C31.0244 53.9377 31.4578 53.5087 32.0038 53.214C32.5498 52.9107 33.1608 52.759 33.8368 52.759C34.5128 52.759 35.1238 52.9107 35.6698 53.214C36.2158 53.5087 36.6448 53.9333 36.9568 54.488C37.2774 55.0427 37.4378 55.6883 37.4378 56.425C37.4378 57.1617 37.2731 57.8117 36.9438 58.375C36.6231 58.9297 36.1854 59.3587 35.6308 59.662C35.0761 59.9653 34.4608 60.117 33.7848 60.117ZM33.7848 59.077C34.2094 59.077 34.6081 58.9773 34.9808 58.778C35.3534 58.5787 35.6524 58.2797 35.8778 57.881C36.1118 57.4823 36.2288 56.997 36.2288 56.425C36.2288 55.853 36.1161 55.3677 35.8908 54.969C35.6654 54.5703 35.3708 54.2757 35.0068 54.085C34.6428 53.8857 34.2484 53.786 33.8238 53.786C33.3904 53.786 32.9918 53.8857 32.6278 54.085C32.2724 54.2757 31.9864 54.5703 31.7698 54.969C31.5531 55.3677 31.4448 55.853 31.4448 56.425C31.4448 57.0057 31.5488 57.4953 31.7568 57.894C31.9734 58.2927 32.2594 58.5917 32.6148 58.791C32.9701 58.9817 33.3601 59.077 33.7848 59.077ZM40.1762 50.38V60H38.9932V50.38H40.1762ZM51.0142 57.985H47.0622L46.3342 60H45.0862L48.3622 50.991H49.7272L52.9902 60H51.7422L51.0142 57.985ZM50.6762 57.023L49.0382 52.447L47.4002 57.023H50.6762ZM57.954 52.746C58.4913 52.746 58.9767 52.863 59.41 53.097C59.8433 53.3223 60.1813 53.6647 60.424 54.124C60.6753 54.5833 60.801 55.1423 60.801 55.801V60H59.631V55.97C59.631 55.2593 59.4533 54.7177 59.098 54.345C58.7427 53.9637 58.2573 53.773 57.642 53.773C57.018 53.773 56.5197 53.968 56.147 54.358C55.783 54.748 55.601 55.3157 55.601 56.061V60H54.418V50.38H55.601V53.89C55.835 53.526 56.1557 53.2443 56.563 53.045C56.979 52.8457 57.4427 52.746 57.954 52.746ZM63.9164 50.38V60H62.7334V50.38H63.9164ZM68.4546 60.117C67.9086 60.117 67.419 60.026 66.9856 59.844C66.5523 59.6533 66.21 59.3933 65.9586 59.064C65.7073 58.726 65.5686 58.3403 65.5426 57.907H66.7646C66.7993 58.2623 66.964 58.5527 67.2586 58.778C67.562 59.0033 67.9563 59.116 68.4416 59.116C68.8923 59.116 69.2476 59.0163 69.5076 58.817C69.7676 58.6177 69.8976 58.3663 69.8976 58.063C69.8976 57.751 69.759 57.5213 69.4816 57.374C69.2043 57.218 68.7753 57.0663 68.1946 56.919C67.666 56.7803 67.2326 56.6417 66.8946 56.503C66.5653 56.3557 66.2793 56.1433 66.0366 55.866C65.8026 55.58 65.6856 55.2073 65.6856 54.748C65.6856 54.384 65.794 54.0503 66.0106 53.747C66.2273 53.4437 66.535 53.2053 66.9336 53.032C67.3323 52.85 67.7873 52.759 68.2986 52.759C69.0873 52.759 69.7243 52.9583 70.2096 53.357C70.695 53.7557 70.955 54.3017 70.9896 54.995H69.8066C69.7806 54.6223 69.629 54.3233 69.3516 54.098C69.083 53.8727 68.719 53.76 68.2596 53.76C67.835 53.76 67.497 53.851 67.2456 54.033C66.9943 54.215 66.8686 54.4533 66.8686 54.748C66.8686 54.982 66.9423 55.177 67.0896 55.333C67.2456 55.4803 67.4363 55.6017 67.6616 55.697C67.8956 55.7837 68.2163 55.8833 68.6236 55.996C69.135 56.1347 69.551 56.2733 69.8716 56.412C70.1923 56.542 70.4653 56.7413 70.6906 57.01C70.9246 57.2787 71.046 57.6297 71.0546 58.063C71.0546 58.453 70.9463 58.804 70.7296 59.116C70.513 59.428 70.2053 59.675 69.8066 59.857C69.4166 60.0303 68.966 60.117 68.4546 60.117ZM74.1676 53.851V58.05C74.1676 58.3967 74.2413 58.6437 74.3886 58.791C74.536 58.9297 74.7916 58.999 75.1556 58.999H76.0266V60H74.9606C74.302 60 73.808 59.8483 73.4786 59.545C73.1493 59.2417 72.9846 58.7433 72.9846 58.05V53.851H72.0616V52.876H72.9846V51.082H74.1676V52.876H76.0266V53.851H74.1676ZM78.643 54.033C78.851 53.6257 79.1457 53.3093 79.527 53.084C79.917 52.8587 80.3893 52.746 80.944 52.746V53.968H80.632C79.306 53.968 78.643 54.6873 78.643 56.126V60H77.46V52.876H78.643V54.033ZM81.8676 56.412C81.8676 55.684 82.0149 55.047 82.3096 54.501C82.6043 53.9463 83.0073 53.5173 83.5186 53.214C84.0386 52.9107 84.6149 52.759 85.2476 52.759C85.8716 52.759 86.4133 52.8933 86.8726 53.162C87.3319 53.4307 87.6743 53.7687 87.8996 54.176V52.876H89.0956V60H87.8996V58.674C87.6656 59.09 87.3146 59.4367 86.8466 59.714C86.3873 59.9827 85.8499 60.117 85.2346 60.117C84.6019 60.117 84.0299 59.961 83.5186 59.649C83.0073 59.337 82.6043 58.8993 82.3096 58.336C82.0149 57.7727 81.8676 57.1313 81.8676 56.412ZM87.8996 56.425C87.8996 55.8877 87.7913 55.4197 87.5746 55.021C87.3579 54.6223 87.0633 54.319 86.6906 54.111C86.3266 53.8943 85.9236 53.786 85.4816 53.786C85.0396 53.786 84.6366 53.89 84.2726 54.098C83.9086 54.306 83.6183 54.6093 83.4016 55.008C83.1849 55.4067 83.0766 55.8747 83.0766 56.412C83.0766 56.958 83.1849 57.4347 83.4016 57.842C83.6183 58.2407 83.9086 58.5483 84.2726 58.765C84.6366 58.973 85.0396 59.077 85.4816 59.077C85.9236 59.077 86.3266 58.973 86.6906 58.765C87.0633 58.5483 87.3579 58.2407 87.5746 57.842C87.7913 57.4347 87.8996 56.9623 87.8996 56.425ZM94.5658 52.746C95.4324 52.746 96.1344 53.0103 96.6718 53.539C97.2091 54.059 97.4778 54.813 97.4778 55.801V60H96.3078V55.97C96.3078 55.2593 96.1301 54.7177 95.7748 54.345C95.4194 53.9637 94.9341 53.773 94.3188 53.773C93.6948 53.773 93.1964 53.968 92.8238 54.358C92.4598 54.748 92.2778 55.3157 92.2778 56.061V60H91.0948V52.876H92.2778V53.89C92.5118 53.526 92.8281 53.2443 93.2268 53.045C93.6341 52.8457 94.0804 52.746 94.5658 52.746ZM98.9682 56.412C98.9682 55.684 99.1155 55.047 99.4102 54.501C99.7048 53.9463 100.108 53.5173 100.619 53.214C101.139 52.9107 101.72 52.759 102.361 52.759C102.916 52.759 103.432 52.889 103.908 53.149C104.385 53.4003 104.749 53.734 105 54.15V50.38H106.196V60H105V58.661C104.766 59.0857 104.42 59.4367 103.96 59.714C103.501 59.9827 102.964 60.117 102.348 60.117C101.716 60.117 101.139 59.961 100.619 59.649C100.108 59.337 99.7048 58.8993 99.4102 58.336C99.1155 57.7727 98.9682 57.1313 98.9682 56.412ZM105 56.425C105 55.8877 104.892 55.4197 104.675 55.021C104.459 54.6223 104.164 54.319 103.791 54.111C103.427 53.8943 103.024 53.786 102.582 53.786C102.14 53.786 101.737 53.89 101.373 54.098C101.009 54.306 100.719 54.6093 100.502 55.008C100.286 55.4067 100.177 55.8747 100.177 56.412C100.177 56.958 100.286 57.4347 100.502 57.842C100.719 58.2407 101.009 58.5483 101.373 58.765C101.737 58.973 102.14 59.077 102.582 59.077C103.024 59.077 103.427 58.973 103.791 58.765C104.164 58.5483 104.459 58.2407 104.675 57.842C104.892 57.4347 105 56.9623 105 56.425Z" fill="black"/>
</svg>
