<svg width="45" height="11" viewBox="0 0 45 11" fill="none" xmlns="http://www.w3.org/2000/svg">
<path d="M7.87109 7.06738C7.75684 8.04492 7.39502 8.80029 6.78564 9.3335C6.1805 9.86247 5.37435 10.127 4.36719 10.127C3.27539 10.127 2.39941 9.73551 1.73926 8.95264C1.08333 8.16976 0.755371 7.1224 0.755371 5.81055V4.92188C0.755371 4.06283 0.907715 3.30745 1.2124 2.65576C1.52132 2.00407 1.95719 1.50472 2.52002 1.15771C3.08285 0.806478 3.73454 0.630859 4.4751 0.630859C5.45687 0.630859 6.24398 0.905924 6.83643 1.45605C7.42887 2.00195 7.77376 2.75944 7.87109 3.72852H6.646C6.5402 2.99219 6.30957 2.45898 5.9541 2.12891C5.60286 1.79883 5.10986 1.63379 4.4751 1.63379C3.69645 1.63379 3.08496 1.92155 2.64062 2.49707C2.20052 3.07259 1.98047 3.89144 1.98047 4.95361V5.84863C1.98047 6.85156 2.18994 7.64925 2.60889 8.2417C3.02783 8.83415 3.61393 9.13037 4.36719 9.13037C5.04427 9.13037 5.56266 8.97803 5.92236 8.67334C6.2863 8.36442 6.52751 7.8291 6.646 7.06738H7.87109ZM13.5967 10C13.529 9.86458 13.474 9.62337 13.4316 9.27637C12.8857 9.84342 12.234 10.127 11.4766 10.127C10.7995 10.127 10.243 9.93652 9.80713 9.55566C9.37549 9.17057 9.15967 8.68392 9.15967 8.0957C9.15967 7.38053 9.4305 6.82617 9.97217 6.43262C10.5181 6.03483 11.284 5.83594 12.27 5.83594H13.4126V5.29639C13.4126 4.8859 13.2899 4.56006 13.0444 4.31885C12.799 4.0734 12.4372 3.95068 11.959 3.95068C11.54 3.95068 11.1888 4.05648 10.9053 4.26807C10.6217 4.47965 10.48 4.73568 10.48 5.03613H9.29932C9.29932 4.69336 9.41992 4.36328 9.66113 4.0459C9.90658 3.72428 10.2367 3.47038 10.6514 3.28418C11.0703 3.09798 11.5295 3.00488 12.0288 3.00488C12.8201 3.00488 13.4401 3.20378 13.8887 3.60156C14.3372 3.99512 14.57 4.5389 14.5869 5.23291V8.39404C14.5869 9.02458 14.6673 9.52604 14.8281 9.89844V10H13.5967ZM11.6479 9.10498C12.0161 9.10498 12.3652 9.00977 12.6953 8.81934C13.0254 8.62891 13.2645 8.38135 13.4126 8.07666V6.66748H12.4922C11.0534 6.66748 10.334 7.08854 10.334 7.93066C10.334 8.29883 10.4567 8.58659 10.7021 8.79395C10.9476 9.0013 11.2629 9.10498 11.6479 9.10498ZM19.7476 4.18555C19.5698 4.15592 19.3773 4.14111 19.1699 4.14111C18.3997 4.14111 17.8771 4.46908 17.6021 5.125V10H16.4277V3.13184H17.5703L17.5894 3.92529C17.9744 3.31169 18.5203 3.00488 19.2271 3.00488C19.4556 3.00488 19.6291 3.03451 19.7476 3.09375V4.18555ZM20.395 6.50244C20.395 5.82959 20.5262 5.22445 20.7886 4.68701C21.0552 4.14958 21.4233 3.73486 21.8931 3.44287C22.367 3.15088 22.9066 3.00488 23.5117 3.00488C24.4469 3.00488 25.2023 3.32861 25.7778 3.97607C26.3576 4.62354 26.6475 5.4847 26.6475 6.55957V6.64209C26.6475 7.31071 26.5184 7.91162 26.2603 8.44482C26.0063 8.9738 25.6403 9.38639 25.1621 9.68262C24.6882 9.97884 24.1423 10.127 23.5244 10.127C22.5934 10.127 21.8381 9.80322 21.2583 9.15576C20.6828 8.5083 20.395 7.65137 20.395 6.58496V6.50244ZM21.5757 6.64209C21.5757 7.40381 21.7513 8.0153 22.1025 8.47656C22.458 8.93783 22.932 9.16846 23.5244 9.16846C24.1211 9.16846 24.5951 8.93571 24.9463 8.47021C25.2975 8.00049 25.4731 7.34456 25.4731 6.50244C25.4731 5.74919 25.2933 5.13981 24.9336 4.67432C24.5781 4.20459 24.1042 3.96973 23.5117 3.96973C22.932 3.96973 22.4644 4.20036 22.1089 4.66162C21.7534 5.12288 21.5757 5.78304 21.5757 6.64209ZM29.396 10H28.2217V0.25H29.396V10ZM39.7935 7.58789H35.9214L35.0518 10H33.7949L37.3242 0.757812H38.3906L41.9263 10H40.6758L39.7935 7.58789ZM36.2896 6.58496H39.4316L37.8574 2.26221L36.2896 6.58496ZM43.0117 9.38428C43.0117 9.18115 43.071 9.01188 43.1895 8.87646C43.3122 8.74105 43.4941 8.67334 43.7354 8.67334C43.9766 8.67334 44.1585 8.74105 44.2812 8.87646C44.4082 9.01188 44.4717 9.18115 44.4717 9.38428C44.4717 9.57894 44.4082 9.74186 44.2812 9.87305C44.1585 10.0042 43.9766 10.0698 43.7354 10.0698C43.4941 10.0698 43.3122 10.0042 43.1895 9.87305C43.071 9.74186 43.0117 9.57894 43.0117 9.38428Z" fill="black"/>
</svg>
