<svg width="1024" height="1366" viewBox="0 0 1024 1366" fill="none" xmlns="http://www.w3.org/2000/svg">
<g clip-path="url(#clip0)">
<rect width="1024" height="1366" fill="white"/>
<path d="M444.559 626.463C444.559 625.579 444.758 624.786 445.157 624.084C445.556 623.373 446.097 622.819 446.782 622.42C447.475 622.021 448.242 621.822 449.083 621.822C450.071 621.822 450.933 622.06 451.67 622.537C452.407 623.014 452.944 623.69 453.282 624.565H451.865C451.614 624.019 451.25 623.599 450.773 623.304C450.305 623.009 449.742 622.862 449.083 622.862C448.45 622.862 447.883 623.009 447.38 623.304C446.877 623.599 446.483 624.019 446.197 624.565C445.911 625.102 445.768 625.735 445.768 626.463C445.768 627.182 445.911 627.815 446.197 628.361C446.483 628.898 446.877 629.314 447.38 629.609C447.883 629.904 448.45 630.051 449.083 630.051C449.742 630.051 450.305 629.908 450.773 629.622C451.25 629.327 451.614 628.907 451.865 628.361H453.282C452.944 629.228 452.407 629.899 451.67 630.376C450.933 630.844 450.071 631.078 449.083 631.078C448.242 631.078 447.475 630.883 446.782 630.493C446.097 630.094 445.556 629.544 445.157 628.842C444.758 628.14 444.559 627.347 444.559 626.463ZM454.601 627.412C454.601 626.684 454.748 626.047 455.043 625.501C455.338 624.946 455.741 624.517 456.252 624.214C456.772 623.911 457.348 623.759 457.981 623.759C458.605 623.759 459.147 623.893 459.606 624.162C460.065 624.431 460.408 624.769 460.633 625.176V623.876H461.829V631H460.633V629.674C460.399 630.09 460.048 630.437 459.58 630.714C459.121 630.983 458.583 631.117 457.968 631.117C457.335 631.117 456.763 630.961 456.252 630.649C455.741 630.337 455.338 629.899 455.043 629.336C454.748 628.773 454.601 628.131 454.601 627.412ZM460.633 627.425C460.633 626.888 460.525 626.42 460.308 626.021C460.091 625.622 459.797 625.319 459.424 625.111C459.06 624.894 458.657 624.786 458.215 624.786C457.773 624.786 457.37 624.89 457.006 625.098C456.642 625.306 456.352 625.609 456.135 626.008C455.918 626.407 455.81 626.875 455.81 627.412C455.81 627.958 455.918 628.435 456.135 628.842C456.352 629.241 456.642 629.548 457.006 629.765C457.37 629.973 457.773 630.077 458.215 630.077C458.657 630.077 459.06 629.973 459.424 629.765C459.797 629.548 460.091 629.241 460.308 628.842C460.525 628.435 460.633 627.962 460.633 627.425ZM465.011 625.033C465.219 624.626 465.514 624.309 465.895 624.084C466.285 623.859 466.757 623.746 467.312 623.746V624.968H467C465.674 624.968 465.011 625.687 465.011 627.126V631H463.828V623.876H465.011V625.033ZM471.785 631.117C471.117 631.117 470.511 630.965 469.965 630.662C469.427 630.359 469.003 629.93 468.691 629.375C468.387 628.812 468.236 628.162 468.236 627.425C468.236 626.697 468.392 626.056 468.704 625.501C469.024 624.938 469.458 624.509 470.004 624.214C470.55 623.911 471.161 623.759 471.837 623.759C472.513 623.759 473.124 623.911 473.67 624.214C474.216 624.509 474.645 624.933 474.957 625.488C475.277 626.043 475.438 626.688 475.438 627.425C475.438 628.162 475.273 628.812 474.944 629.375C474.623 629.93 474.185 630.359 473.631 630.662C473.076 630.965 472.461 631.117 471.785 631.117ZM471.785 630.077C472.209 630.077 472.608 629.977 472.981 629.778C473.353 629.579 473.652 629.28 473.878 628.881C474.112 628.482 474.229 627.997 474.229 627.425C474.229 626.853 474.116 626.368 473.891 625.969C473.665 625.57 473.371 625.276 473.007 625.085C472.643 624.886 472.248 624.786 471.824 624.786C471.39 624.786 470.992 624.886 470.628 625.085C470.272 625.276 469.986 625.57 469.77 625.969C469.553 626.368 469.445 626.853 469.445 627.425C469.445 628.006 469.549 628.495 469.757 628.894C469.973 629.293 470.259 629.592 470.615 629.791C470.97 629.982 471.36 630.077 471.785 630.077ZM478.176 621.38V631H476.993V621.38H478.176ZM489.014 628.985H485.062L484.334 631H483.086L486.362 621.991H487.727L490.99 631H489.742L489.014 628.985ZM488.676 628.023L487.038 623.447L485.4 628.023H488.676ZM495.954 623.746C496.491 623.746 496.977 623.863 497.41 624.097C497.843 624.322 498.181 624.665 498.424 625.124C498.675 625.583 498.801 626.142 498.801 626.801V631H497.631V626.97C497.631 626.259 497.453 625.718 497.098 625.345C496.743 624.964 496.257 624.773 495.642 624.773C495.018 624.773 494.52 624.968 494.147 625.358C493.783 625.748 493.601 626.316 493.601 627.061V631H492.418V621.38H493.601V624.89C493.835 624.526 494.156 624.244 494.563 624.045C494.979 623.846 495.443 623.746 495.954 623.746ZM501.916 621.38V631H500.733V621.38H501.916ZM506.455 631.117C505.909 631.117 505.419 631.026 504.986 630.844C504.552 630.653 504.21 630.393 503.959 630.064C503.707 629.726 503.569 629.34 503.543 628.907H504.765C504.799 629.262 504.964 629.553 505.259 629.778C505.562 630.003 505.956 630.116 506.442 630.116C506.892 630.116 507.248 630.016 507.508 629.817C507.768 629.618 507.898 629.366 507.898 629.063C507.898 628.751 507.759 628.521 507.482 628.374C507.204 628.218 506.775 628.066 506.195 627.919C505.666 627.78 505.233 627.642 504.895 627.503C504.565 627.356 504.279 627.143 504.037 626.866C503.803 626.58 503.686 626.207 503.686 625.748C503.686 625.384 503.794 625.05 504.011 624.747C504.227 624.444 504.535 624.205 504.934 624.032C505.332 623.85 505.787 623.759 506.299 623.759C507.087 623.759 507.724 623.958 508.21 624.357C508.695 624.756 508.955 625.302 508.99 625.995H507.807C507.781 625.622 507.629 625.323 507.352 625.098C507.083 624.873 506.719 624.76 506.26 624.76C505.835 624.76 505.497 624.851 505.246 625.033C504.994 625.215 504.869 625.453 504.869 625.748C504.869 625.982 504.942 626.177 505.09 626.333C505.246 626.48 505.436 626.602 505.662 626.697C505.896 626.784 506.216 626.883 506.624 626.996C507.135 627.135 507.551 627.273 507.872 627.412C508.192 627.542 508.465 627.741 508.691 628.01C508.925 628.279 509.046 628.63 509.055 629.063C509.055 629.453 508.946 629.804 508.73 630.116C508.513 630.428 508.205 630.675 507.807 630.857C507.417 631.03 506.966 631.117 506.455 631.117ZM512.168 624.851V629.05C512.168 629.397 512.241 629.644 512.389 629.791C512.536 629.93 512.792 629.999 513.156 629.999H514.027V631H512.961C512.302 631 511.808 630.848 511.479 630.545C511.149 630.242 510.985 629.743 510.985 629.05V624.851H510.062V623.876H510.985V622.082H512.168V623.876H514.027V624.851H512.168ZM516.643 625.033C516.851 624.626 517.146 624.309 517.527 624.084C517.917 623.859 518.389 623.746 518.944 623.746V624.968H518.632C517.306 624.968 516.643 625.687 516.643 627.126V631H515.46V623.876H516.643V625.033ZM519.868 627.412C519.868 626.684 520.015 626.047 520.31 625.501C520.604 624.946 521.007 624.517 521.519 624.214C522.039 623.911 522.615 623.759 523.248 623.759C523.872 623.759 524.413 623.893 524.873 624.162C525.332 624.431 525.674 624.769 525.9 625.176V623.876H527.096V631H525.9V629.674C525.666 630.09 525.315 630.437 524.847 630.714C524.387 630.983 523.85 631.117 523.235 631.117C522.602 631.117 522.03 630.961 521.519 630.649C521.007 630.337 520.604 629.899 520.31 629.336C520.015 628.773 519.868 628.131 519.868 627.412ZM525.9 627.425C525.9 626.888 525.791 626.42 525.575 626.021C525.358 625.622 525.063 625.319 524.691 625.111C524.327 624.894 523.924 624.786 523.482 624.786C523.04 624.786 522.637 624.89 522.273 625.098C521.909 625.306 521.618 625.609 521.402 626.008C521.185 626.407 521.077 626.875 521.077 627.412C521.077 627.958 521.185 628.435 521.402 628.842C521.618 629.241 521.909 629.548 522.273 629.765C522.637 629.973 523.04 630.077 523.482 630.077C523.924 630.077 524.327 629.973 524.691 629.765C525.063 629.548 525.358 629.241 525.575 628.842C525.791 628.435 525.9 627.962 525.9 627.425ZM532.566 623.746C533.432 623.746 534.134 624.01 534.672 624.539C535.209 625.059 535.478 625.813 535.478 626.801V631H534.308V626.97C534.308 626.259 534.13 625.718 533.775 625.345C533.419 624.964 532.934 624.773 532.319 624.773C531.695 624.773 531.196 624.968 530.824 625.358C530.46 625.748 530.278 626.316 530.278 627.061V631H529.095V623.876H530.278V624.89C530.512 624.526 530.828 624.244 531.227 624.045C531.634 623.846 532.08 623.746 532.566 623.746ZM536.968 627.412C536.968 626.684 537.116 626.047 537.41 625.501C537.705 624.946 538.108 624.517 538.619 624.214C539.139 623.911 539.72 623.759 540.361 623.759C540.916 623.759 541.432 623.889 541.908 624.149C542.385 624.4 542.749 624.734 543 625.15V621.38H544.196V631H543V629.661C542.766 630.086 542.42 630.437 541.96 630.714C541.501 630.983 540.964 631.117 540.348 631.117C539.716 631.117 539.139 630.961 538.619 630.649C538.108 630.337 537.705 629.899 537.41 629.336C537.116 628.773 536.968 628.131 536.968 627.412ZM543 627.425C543 626.888 542.892 626.42 542.675 626.021C542.459 625.622 542.164 625.319 541.791 625.111C541.427 624.894 541.024 624.786 540.582 624.786C540.14 624.786 539.737 624.89 539.373 625.098C539.009 625.306 538.719 625.609 538.502 626.008C538.286 626.407 538.177 626.875 538.177 627.412C538.177 627.958 538.286 628.435 538.502 628.842C538.719 629.241 539.009 629.548 539.373 629.765C539.737 629.973 540.14 630.077 540.582 630.077C541.024 630.077 541.427 629.973 541.791 629.765C542.164 629.548 542.459 629.241 542.675 628.842C542.892 628.435 543 627.962 543 627.425Z" fill="black"/>
</g>
<defs>
<clipPath id="clip0">
<rect width="1024" height="1366" fill="white"/>
</clipPath>
</defs>
</svg>
