<svg width="115" height="115" viewBox="0 0 115 115" fill="none" xmlns="http://www.w3.org/2000/svg">
<rect width="115" height="115" fill="white"/>
<path d="M35.8984 59.9395C35.7402 61.293 35.2393 62.3389 34.3955 63.0771C33.5576 63.8096 32.4414 64.1758 31.0469 64.1758C29.5352 64.1758 28.3223 63.6338 27.4082 62.5498C26.5 61.4658 26.0459 60.0156 26.0459 58.1992V56.9688C26.0459 55.7793 26.2568 54.7334 26.6787 53.8311C27.1064 52.9287 27.71 52.2373 28.4893 51.7568C29.2686 51.2705 30.1709 51.0273 31.1963 51.0273C32.5557 51.0273 33.6455 51.4082 34.4658 52.1699C35.2861 52.9258 35.7637 53.9746 35.8984 55.3164H34.2021C34.0557 54.2969 33.7363 53.5586 33.2441 53.1016C32.7578 52.6445 32.0752 52.416 31.1963 52.416C30.1182 52.416 29.2715 52.8145 28.6562 53.6113C28.0469 54.4082 27.7422 55.542 27.7422 57.0127V58.252C27.7422 59.6406 28.0322 60.7451 28.6123 61.5654C29.1924 62.3857 30.0039 62.7959 31.0469 62.7959C31.9844 62.7959 32.7021 62.585 33.2002 62.1631C33.7041 61.7354 34.0381 60.9941 34.2021 59.9395H35.8984ZM43.8262 64C43.7324 63.8125 43.6562 63.4785 43.5977 62.998C42.8418 63.7832 41.9395 64.1758 40.8906 64.1758C39.9531 64.1758 39.1826 63.9121 38.5791 63.3848C37.9814 62.8516 37.6826 62.1777 37.6826 61.3633C37.6826 60.373 38.0576 59.6055 38.8076 59.0605C39.5635 58.5098 40.624 58.2344 41.9893 58.2344H43.5713V57.4873C43.5713 56.9189 43.4014 56.4678 43.0615 56.1338C42.7217 55.7939 42.2207 55.624 41.5586 55.624C40.9785 55.624 40.4922 55.7705 40.0996 56.0635C39.707 56.3564 39.5107 56.7109 39.5107 57.127H37.876C37.876 56.6523 38.043 56.1953 38.377 55.7559C38.7168 55.3105 39.1738 54.959 39.748 54.7012C40.3281 54.4434 40.9639 54.3145 41.6553 54.3145C42.751 54.3145 43.6094 54.5898 44.2305 55.1406C44.8516 55.6855 45.1738 56.4385 45.1973 57.3994V61.7764C45.1973 62.6494 45.3086 63.3438 45.5312 63.8594V64H43.8262ZM41.1279 62.7607C41.6377 62.7607 42.1211 62.6289 42.5781 62.3652C43.0352 62.1016 43.3662 61.7588 43.5713 61.3369V59.3857H42.2969C40.3047 59.3857 39.3086 59.9688 39.3086 61.1348C39.3086 61.6445 39.4785 62.043 39.8184 62.3301C40.1582 62.6172 40.5947 62.7607 41.1279 62.7607ZM52.3428 55.9492C52.0967 55.9082 51.8301 55.8877 51.543 55.8877C50.4766 55.8877 49.7529 56.3418 49.3721 57.25V64H47.7461V54.4902H49.3281L49.3545 55.5889C49.8877 54.7393 50.6436 54.3145 51.6221 54.3145C51.9385 54.3145 52.1787 54.3555 52.3428 54.4375V55.9492ZM53.2393 59.1572C53.2393 58.2256 53.4209 57.3877 53.7842 56.6436C54.1533 55.8994 54.6631 55.3252 55.3135 54.9209C55.9697 54.5166 56.7168 54.3145 57.5547 54.3145C58.8496 54.3145 59.8955 54.7627 60.6924 55.6592C61.4951 56.5557 61.8965 57.748 61.8965 59.2363V59.3506C61.8965 60.2764 61.7178 61.1084 61.3604 61.8467C61.0088 62.5791 60.502 63.1504 59.8398 63.5605C59.1836 63.9707 58.4277 64.1758 57.5723 64.1758C56.2832 64.1758 55.2373 63.7275 54.4346 62.8311C53.6377 61.9346 53.2393 60.748 53.2393 59.2715V59.1572ZM54.874 59.3506C54.874 60.4053 55.1172 61.252 55.6035 61.8906C56.0957 62.5293 56.752 62.8486 57.5723 62.8486C58.3984 62.8486 59.0547 62.5264 59.541 61.8818C60.0273 61.2314 60.2705 60.3232 60.2705 59.1572C60.2705 58.1143 60.0215 57.2705 59.5234 56.626C59.0312 55.9756 58.375 55.6504 57.5547 55.6504C56.752 55.6504 56.1045 55.9697 55.6123 56.6084C55.1201 57.2471 54.874 58.1611 54.874 59.3506ZM65.7021 64H64.0762V50.5H65.7021V64ZM80.0986 60.6602H74.7373L73.5332 64H71.793L76.6797 51.2031H78.1562L83.0518 64H81.3203L80.0986 60.6602ZM75.2471 59.2715H79.5977L77.418 53.2861L75.2471 59.2715ZM84.5547 63.1475C84.5547 62.8662 84.6367 62.6318 84.8008 62.4443C84.9707 62.2568 85.2227 62.1631 85.5566 62.1631C85.8906 62.1631 86.1426 62.2568 86.3125 62.4443C86.4883 62.6318 86.5762 62.8662 86.5762 63.1475C86.5762 63.417 86.4883 63.6426 86.3125 63.8242C86.1426 64.0059 85.8906 64.0967 85.5566 64.0967C85.2227 64.0967 84.9707 64.0059 84.8008 63.8242C84.6367 63.6426 84.5547 63.417 84.5547 63.1475Z" fill="black"/>
</svg>
